<svg xmlns="http://www.w3.org/2000/svg" viewBox="40.0 -808.0 640.0 848.0" width="1200" height="1200">
  <rect x="40.0" y="-808.0" width="640.0" height="848.0" fill="#101010"/>
  <g transform="scale(1,-1)">
    <path d="M 96.0 0.0 L 624.0 0.0 L 640.0 16.0 L 640.0 80.0 L 624.0 96.0 L 192.0 96.0 L 184.0 104.0 L 184.0 342.0 L 192.0 350.0 L 576.0 350.0 L 592.0 366.0 L 592.0 422.0 L 576.0 438.0 L 192.0 438.0 L 184.0 446.0 L 184.0 668.0 L 192.0 676.0 L 608.0 676.0 L 624.0 692.0 L 624.0 752.0 L 608.0 768.0 L 96.0 768.0 L 80.0 752.0 L 80.0 16.0 L 96.0 0.0 Z" fill="none" stroke="#66ee88" stroke-width="3" opacity="0.85"/>
    <path d="M 96.0 0.0 L 624.0 0.0 L 640.0 16.0 L 640.0 80.0 L 624.0 96.0 L 194.0 96.0 L 184.0 104.0 L 184.0 342.0 L 192.0 350.0 L 576.0 350.0 L 592.0 368.0 L 592.0 422.0 L 576.0 438.0 L 192.0 438.0 L 184.0 446.0 L 184.0 668.0 L 192.0 676.0 L 608.0 676.0 L 624.0 692.0 L 624.0 752.0 L 608.0 768.0 L 96.0 768.0 L 80.0 752.0 L 80.0 16.0 L 96.0 0.0 Z" fill="none" stroke="#ff684f" stroke-width="2" opacity="0.9"/>
    <circle cx="96.0" cy="0.0" r="5" fill="#0a8f5a"/>
    <circle cx="624.0" cy="0.0" r="5" fill="#0a8f5a"/>
    <circle cx="640.0" cy="16.0" r="5" fill="#0a8f5a"/>
    <circle cx="640.0" cy="80.0" r="5" fill="#0a8f5a"/>
    <circle cx="624.0" cy="96.0" r="5" fill="#0a8f5a"/>
    <circle cx="192.0" cy="96.0" r="5" fill="#0a8f5a"/>
    <circle cx="184.0" cy="104.0" r="5" fill="#0a8f5a"/>
    <circle cx="184.0" cy="342.0" r="5" fill="#0a8f5a"/>
    <circle cx="192.0" cy="350.0" r="5" fill="#0a8f5a"/>
    <circle cx="576.0" cy="350.0" r="5" fill="#0a8f5a"/>
    <circle cx="592.0" cy="366.0" r="5" fill="#0a8f5a"/>
    <circle cx="592.0" cy="422.0" r="5" fill="#0a8f5a"/>
    <circle cx="576.0" cy="438.0" r="5" fill="#0a8f5a"/>
    <circle cx="192.0" cy="438.0" r="5" fill="#0a8f5a"/>
    <circle cx="184.0" cy="446.0" r="5" fill="#0a8f5a"/>
    <circle cx="184.0" cy="668.0" r="5" fill="#0a8f5a"/>
    <circle cx="192.0" cy="676.0" r="5" fill="#0a8f5a"/>
    <circle cx="608.0" cy="676.0" r="5" fill="#0a8f5a"/>
    <circle cx="624.0" cy="692.0" r="5" fill="#0a8f5a"/>
    <circle cx="624.0" cy="752.0" r="5" fill="#0a8f5a"/>
    <circle cx="608.0" cy="768.0" r="5" fill="#0a8f5a"/>
    <circle cx="96.0" cy="768.0" r="5" fill="#0a8f5a"/>
    <circle cx="80.0" cy="752.0" r="5" fill="#0a8f5a"/>
    <circle cx="80.0" cy="16.0" r="5" fill="#0a8f5a"/>
    <circle cx="96.0" cy="0.0" r="5" fill="#c4311c"/>
    <circle cx="624.0" cy="0.0" r="5" fill="#c4311c"/>
    <circle cx="640.0" cy="16.0" r="5" fill="#c4311c"/>
    <circle cx="640.0" cy="80.0" r="5" fill="#c4311c"/>
    <circle cx="624.0" cy="96.0" r="5" fill="#c4311c"/>
    <circle cx="194.0" cy="96.0" r="5" fill="#c4311c"/>
    <circle cx="184.0" cy="104.0" r="5" fill="#c4311c"/>
    <circle cx="184.0" cy="342.0" r="5" fill="#c4311c"/>
    <circle cx="192.0" cy="350.0" r="5" fill="#c4311c"/>
    <circle cx="576.0" cy="350.0" r="5" fill="#c4311c"/>
    <circle cx="592.0" cy="368.0" r="5" fill="#c4311c"/>
    <circle cx="592.0" cy="422.0" r="5" fill="#c4311c"/>
    <circle cx="576.0" cy="438.0" r="5" fill="#c4311c"/>
    <circle cx="192.0" cy="438.0" r="5" fill="#c4311c"/>
    <circle cx="184.0" cy="446.0" r="5" fill="#c4311c"/>
    <circle cx="184.0" cy="668.0" r="5" fill="#c4311c"/>
    <circle cx="192.0" cy="676.0" r="5" fill="#c4311c"/>
    <circle cx="608.0" cy="676.0" r="5" fill="#c4311c"/>
    <circle cx="624.0" cy="692.0" r="5" fill="#c4311c"/>
    <circle cx="624.0" cy="752.0" r="5" fill="#c4311c"/>
    <circle cx="608.0" cy="768.0" r="5" fill="#c4311c"/>
    <circle cx="96.0" cy="768.0" r="5" fill="#c4311c"/>
    <circle cx="80.0" cy="752.0" r="5" fill="#c4311c"/>
    <circle cx="80.0" cy="16.0" r="5" fill="#c4311c"/>
  </g>
</svg>
