<svg xmlns="http://www.w3.org/2000/svg" viewBox="-24.0 -808.0 672.0 848.0" width="1200" height="1200">
  <rect x="-24.0" y="-808.0" width="672.0" height="848.0" fill="#101010"/>
  <g transform="scale(1,-1)">
    <path d="M 276.0 0.0 L 348.0 0.0 L 364.0 16.0 L 364.0 312.0 L 608.0 704.0 L 608.0 752.0 L 592.0 768.0 L 544.0 768.0 L 528.0 752.0 L 318.0 408.0 L 310.0 408.0 L 96.0 752.0 L 80.0 768.0 L 32.0 768.0 L 16.0 752.0 L 16.0 704.0 L 260.0 312.0 L 260.0 16.0 L 276.0 0.0 Z" fill="none" stroke="#66ee88" stroke-width="3" opacity="0.85"/>
    <path d="M 276.0 0.0 L 348.0 0.0 L 364.0 16.0 L 364.0 312.0 L 608.0 704.0 L 608.0 752.0 L 592.0 768.0 L 540.0 768.0 L 312.0 408.0 L 86.0 768.0 L 32.0 768.0 L 16.0 752.0 L 16.0 704.0 L 260.0 312.0 L 260.0 18.0 L 276.0 0.0 Z" fill="none" stroke="#ff684f" stroke-width="2" opacity="0.9"/>
    <circle cx="276.0" cy="0.0" r="5" fill="#0a8f5a"/>
    <circle cx="348.0" cy="0.0" r="5" fill="#0a8f5a"/>
    <circle cx="364.0" cy="16.0" r="5" fill="#0a8f5a"/>
    <circle cx="364.0" cy="312.0" r="5" fill="#0a8f5a"/>
    <circle cx="608.0" cy="704.0" r="5" fill="#0a8f5a"/>
    <circle cx="608.0" cy="752.0" r="5" fill="#0a8f5a"/>
    <circle cx="592.0" cy="768.0" r="5" fill="#0a8f5a"/>
    <circle cx="544.0" cy="768.0" r="5" fill="#0a8f5a"/>
    <circle cx="528.0" cy="752.0" r="5" fill="#0a8f5a"/>
    <circle cx="318.0" cy="408.0" r="5" fill="#0a8f5a"/>
    <circle cx="310.0" cy="408.0" r="5" fill="#0a8f5a"/>
    <circle cx="96.0" cy="752.0" r="5" fill="#0a8f5a"/>
    <circle cx="80.0" cy="768.0" r="5" fill="#0a8f5a"/>
    <circle cx="32.0" cy="768.0" r="5" fill="#0a8f5a"/>
    <circle cx="16.0" cy="752.0" r="5" fill="#0a8f5a"/>
    <circle cx="16.0" cy="704.0" r="5" fill="#0a8f5a"/>
    <circle cx="260.0" cy="312.0" r="5" fill="#0a8f5a"/>
    <circle cx="260.0" cy="16.0" r="5" fill="#0a8f5a"/>
    <circle cx="276.0" cy="0.0" r="5" fill="#c4311c"/>
    <circle cx="348.0" cy="0.0" r="5" fill="#c4311c"/>
    <circle cx="364.0" cy="16.0" r="5" fill="#c4311c"/>
    <circle cx="364.0" cy="312.0" r="5" fill="#c4311c"/>
    <circle cx="608.0" cy="704.0" r="5" fill="#c4311c"/>
    <circle cx="608.0" cy="752.0" r="5" fill="#c4311c"/>
    <circle cx="592.0" cy="768.0" r="5" fill="#c4311c"/>
    <circle cx="540.0" cy="768.0" r="5" fill="#c4311c"/>
    <circle cx="312.0" cy="408.0" r="5" fill="#c4311c"/>
    <circle cx="86.0" cy="768.0" r="5" fill="#c4311c"/>
    <circle cx="32.0" cy="768.0" r="5" fill="#c4311c"/>
    <circle cx="16.0" cy="752.0" r="5" fill="#c4311c"/>
    <circle cx="16.0" cy="704.0" r="5" fill="#c4311c"/>
    <circle cx="260.0" cy="312.0" r="5" fill="#c4311c"/>
    <circle cx="260.0" cy="18.0" r="5" fill="#c4311c"/>
  </g>
</svg>
